<?xml version="1.0" encoding="UTF-8" standalone="no"?>
<!DOCTYPE svg PUBLIC "-//W3C//DTD SVG 1.1//EN"
 "http://www.w3.org/Graphics/SVG/1.1/DTD/svg11.dtd">
<!-- Generated by graphviz version 2.43.0 (0)
 -->
<!-- Title: R Pages: 1 -->
<svg width="319pt" height="368pt"
 viewBox="0.00 0.00 318.98 368.00" xmlns="http://www.w3.org/2000/svg" xmlns:xlink="http://www.w3.org/1999/xlink">
<g id="graph0" class="graph" transform="scale(1 1) rotate(0) translate(4 364)">
<title>R</title>
<polygon fill="white" stroke="transparent" points="-4,4 -4,-364 314.98,-364 314.98,4 -4,4"/>
<!-- Suma = 10.0 -->
<g id="node1" class="node">
<title>Suma = 10.0</title>
<ellipse fill="none" stroke="black" cx="110.49" cy="-45" rx="71.49" ry="18"/>
<text text-anchor="middle" x="110.49" y="-41.3" font-family="Times,serif" font-size="14.00">Suma = 10.0</text>
</g>
<!-- 6.5 -->
<g id="node2" class="node">
<title>6.5</title>
<ellipse fill="none" stroke="black" cx="283.98" cy="-72" rx="27" ry="18"/>
<text text-anchor="middle" x="283.98" y="-68.3" font-family="Times,serif" font-size="14.00">6.5</text>
</g>
<!-- Suma = 10.0&#45;&gt;6.5 -->
<g id="edge1" class="edge">
<title>Suma = 10.0&#45;&gt;6.5</title>
<path fill="none" stroke="black" d="M171.47,-54.44C196.7,-58.42 225.22,-62.91 247.1,-66.35"/>
<polygon fill="black" stroke="black" points="246.84,-69.85 257.26,-67.95 247.93,-62.94 246.84,-69.85"/>
</g>
<!-- 3.5 -->
<g id="node3" class="node">
<title>3.5</title>
<ellipse fill="none" stroke="black" cx="283.98" cy="-18" rx="27" ry="18"/>
<text text-anchor="middle" x="283.98" y="-14.3" font-family="Times,serif" font-size="14.00">3.5</text>
</g>
<!-- Suma = 10.0&#45;&gt;3.5 -->
<g id="edge2" class="edge">
<title>Suma = 10.0&#45;&gt;3.5</title>
<path fill="none" stroke="black" d="M171.47,-35.56C196.7,-31.58 225.22,-27.09 247.1,-23.65"/>
<polygon fill="black" stroke="black" points="247.93,-27.06 257.26,-22.05 246.84,-20.15 247.93,-27.06"/>
</g>
<!-- Resta = 30.0 -->
<g id="node4" class="node">
<title>Resta = 30.0</title>
<ellipse fill="none" stroke="black" cx="110.49" cy="-207" rx="71.49" ry="18"/>
<text text-anchor="middle" x="110.49" y="-203.3" font-family="Times,serif" font-size="14.00">Resta = 30.0</text>
</g>
<!-- 60 -->
<g id="node5" class="node">
<title>60</title>
<ellipse fill="none" stroke="black" cx="283.98" cy="-180" rx="27" ry="18"/>
<text text-anchor="middle" x="283.98" y="-176.3" font-family="Times,serif" font-size="14.00">60</text>
</g>
<!-- Resta = 30.0&#45;&gt;60 -->
<g id="edge3" class="edge">
<title>Resta = 30.0&#45;&gt;60</title>
<path fill="none" stroke="black" d="M171.47,-197.56C196.7,-193.58 225.22,-189.09 247.1,-185.65"/>
<polygon fill="black" stroke="black" points="247.93,-189.06 257.26,-184.05 246.84,-182.15 247.93,-189.06"/>
</g>
<!-- 30 -->
<g id="node6" class="node">
<title>30</title>
<ellipse fill="none" stroke="black" cx="283.98" cy="-234" rx="27" ry="18"/>
<text text-anchor="middle" x="283.98" y="-230.3" font-family="Times,serif" font-size="14.00">30</text>
</g>
<!-- Resta = 30.0&#45;&gt;30 -->
<g id="edge4" class="edge">
<title>Resta = 30.0&#45;&gt;30</title>
<path fill="none" stroke="black" d="M171.47,-216.44C196.7,-220.42 225.22,-224.91 247.1,-228.35"/>
<polygon fill="black" stroke="black" points="246.84,-231.85 257.26,-229.95 247.93,-224.94 246.84,-231.85"/>
</g>
<!-- Division = 3.0 -->
<g id="node7" class="node">
<title>Division = 3.0</title>
<ellipse fill="none" stroke="black" cx="110.49" cy="-126" rx="76.89" ry="18"/>
<text text-anchor="middle" x="110.49" y="-122.3" font-family="Times,serif" font-size="14.00">Division = 3.0</text>
</g>
<!-- Division = 3.0&#45;&gt;60 -->
<g id="edge5" class="edge">
<title>Division = 3.0&#45;&gt;60</title>
<path fill="none" stroke="black" d="M157,-140.33C186.03,-149.47 223.03,-161.12 249.4,-169.43"/>
<polygon fill="black" stroke="black" points="248.36,-172.77 258.95,-172.43 250.47,-166.09 248.36,-172.77"/>
</g>
<!-- 20 -->
<g id="node8" class="node">
<title>20</title>
<ellipse fill="none" stroke="black" cx="283.98" cy="-126" rx="27" ry="18"/>
<text text-anchor="middle" x="283.98" y="-122.3" font-family="Times,serif" font-size="14.00">20</text>
</g>
<!-- Division = 3.0&#45;&gt;20 -->
<g id="edge6" class="edge">
<title>Division = 3.0&#45;&gt;20</title>
<path fill="none" stroke="black" d="M187.21,-126C207.86,-126 229.31,-126 246.65,-126"/>
<polygon fill="black" stroke="black" points="246.88,-129.5 256.88,-126 246.88,-122.5 246.88,-129.5"/>
</g>
<!-- Multiplicacion = 54.0 -->
<g id="node9" class="node">
<title>Multiplicacion = 54.0</title>
<ellipse fill="none" stroke="black" cx="110.49" cy="-315" rx="110.48" ry="18"/>
<text text-anchor="middle" x="110.49" y="-311.3" font-family="Times,serif" font-size="14.00">Multiplicacion = 54.0</text>
</g>
<!-- 6 -->
<g id="node10" class="node">
<title>6</title>
<ellipse fill="none" stroke="black" cx="283.98" cy="-342" rx="27" ry="18"/>
<text text-anchor="middle" x="283.98" y="-338.3" font-family="Times,serif" font-size="14.00">6</text>
</g>
<!-- Multiplicacion = 54.0&#45;&gt;6 -->
<g id="edge7" class="edge">
<title>Multiplicacion = 54.0&#45;&gt;6</title>
<path fill="none" stroke="black" d="M190.46,-327.43C210.36,-330.57 230.75,-333.78 247.31,-336.38"/>
<polygon fill="black" stroke="black" points="247.17,-339.91 257.59,-338 248.26,-332.99 247.17,-339.91"/>
</g>
<!-- 9 -->
<g id="node11" class="node">
<title>9</title>
<ellipse fill="none" stroke="black" cx="283.98" cy="-288" rx="27" ry="18"/>
<text text-anchor="middle" x="283.98" y="-284.3" font-family="Times,serif" font-size="14.00">9</text>
</g>
<!-- Multiplicacion = 54.0&#45;&gt;9 -->
<g id="edge8" class="edge">
<title>Multiplicacion = 54.0&#45;&gt;9</title>
<path fill="none" stroke="black" d="M190.46,-302.57C210.36,-299.43 230.75,-296.22 247.31,-293.62"/>
<polygon fill="black" stroke="black" points="248.26,-297.01 257.59,-292 247.17,-290.09 248.26,-297.01"/>
</g>
</g>
</svg>
